<?xml version="1.0" encoding="UTF-8"?><svg xmlns="http://www.w3.org/2000/svg" viewBox="0 0 217.81 80.4"><defs><style>.d{fill:#0e19e5;}.e{fill:#06a2f9;}</style></defs><g id="a"/><g id="b"><g id="c"><g><g><path class="e" d="M63.92,29.92c-2.69,0-5.37-1.15-7.22-3.39-.43-.51-.88-1.01-1.36-1.48-3.66-3.67-3.66-9.61,0-13.27,3.66-3.66,9.61-3.66,13.27,0,.88,.88,1.73,1.81,2.52,2.76,3.31,3.99,2.77,9.9-1.22,13.22-1.75,1.46-3.88,2.17-5.99,2.17Z"/><path class="d" d="M40.2,80.4c-10.63,0-20.9-4.23-28.45-11.77C-3.92,52.95-3.92,27.45,11.76,11.77,19.7,3.83,30.69-.44,41.92,.04c5.18,.22,9.2,4.6,8.97,9.78-.22,5.18-4.58,9.21-9.78,8.97-5.99-.27-11.85,2.02-16.09,6.26-8.36,8.36-8.36,21.95,0,30.31,4.27,4.27,10.18,6.56,16.22,6.25,5.16-.23,9.58,3.74,9.83,8.91,.25,5.18-3.74,9.58-8.92,9.83-.65,.03-1.31,.05-1.96,.05Z"/><path class="e" d="M61.97,71.38c-2.4,0-4.8-.92-6.64-2.75-3.66-3.67-3.66-9.61,0-13.27,3.84-3.84,6.07-8.94,6.26-14.37,.19-5.18,4.58-9.2,9.72-9.04,5.18,.19,9.22,4.54,9.04,9.72-.37,10.18-4.55,19.75-11.75,26.95-1.83,1.83-4.23,2.75-6.64,2.75Z"/></g><g><path class="d" d="M130.4,50.76c.35,0,.69,.07,.99,.21,.31,.14,.58,.32,.81,.54,.23,.23,.42,.5,.56,.81,.14,.31,.21,.65,.21,1,0,.68-.27,1.29-.8,1.84-3.6,2.87-7.66,4.31-12.17,4.31-5.36,0-9.92-1.89-13.7-5.66-3.77-3.78-5.66-8.34-5.66-13.7s1.89-9.9,5.66-13.67c3.79-3.79,8.36-5.69,13.7-5.69,4.58,0,8.72,1.51,12.41,4.53,.45,.44,.68,1.03,.68,1.77,0,.37-.06,.71-.19,1.02s-.31,.58-.54,.81c-.23,.23-.51,.42-.82,.55-.31,.13-.65,.19-1,.19-.63,0-1.22-.24-1.77-.73-1.23-.97-2.58-1.71-4.05-2.22-1.48-.52-3.04-.78-4.71-.78-3.94,0-7.3,1.4-10.09,4.19-2.76,2.76-4.14,6.11-4.14,10.04s1.38,7.31,4.14,10.07c2.78,2.77,6.14,4.16,10.09,4.16,3.37,0,6.34-1.04,8.91-3.12,.42-.29,.92-.44,1.5-.46Z"/><path class="d" d="M136.26,56.96V23.3c0-.71,.24-1.31,.71-1.8,.48-.49,1.08-.74,1.8-.74s1.33,.25,1.8,.74c.48,.49,.71,1.09,.71,1.8v31.12h1.16c.69,0,1.29,.25,1.78,.74,.49,.49,.74,1.09,.74,1.8s-.25,1.29-.74,1.78c-.49,.49-1.09,.74-1.78,.74h-3.7c-.69,0-1.28-.25-1.77-.74s-.73-1.08-.73-1.78Z"/><path class="d" d="M175.22,45.92c0,3.78-1.32,6.97-3.97,9.58-2.68,2.65-5.87,3.97-9.58,3.97s-6.94-1.32-9.58-3.97c-2.65-2.64-3.97-5.84-3.97-9.58s1.32-6.94,3.97-9.58c2.65-2.65,5.84-3.97,9.58-3.97s6.9,1.32,9.58,3.97c1.32,1.32,2.31,2.78,2.96,4.38,.65,1.6,.99,3.33,1,5.2Zm-13.55-8.49c-1.19,0-2.31,.23-3.34,.68-1.03,.45-1.93,1.06-2.69,1.83-.76,.77-1.36,1.67-1.8,2.7-.44,1.03-.67,2.13-.67,3.29s.22,2.26,.67,3.29c.44,1.03,1.04,1.93,1.8,2.7,.76,.77,1.65,1.38,2.69,1.83,1.03,.45,2.15,.68,3.34,.68s2.28-.23,3.32-.68c1.03-.45,1.93-1.06,2.7-1.84,.77-.77,1.37-1.67,1.81-2.7,.44-1.03,.67-2.12,.67-3.28s-.22-2.25-.67-3.28c-.44-1.02-1.05-1.92-1.81-2.7-.77-.78-1.67-1.39-2.7-1.84-1.03-.45-2.14-.68-3.32-.68Z"/><path class="d" d="M185.94,27.56c0,.82-.29,1.53-.87,2.11-.58,.58-1.28,.87-2.11,.87s-1.52-.29-2.11-.87c-.58-.58-.87-1.28-.87-2.11s.29-1.53,.87-2.11c.58-.58,1.28-.87,2.11-.87s1.52,.29,2.11,.87c.58,.58,.87,1.28,.87,2.11Zm-5.49,29.38v-22.02c0-.71,.25-1.31,.74-1.8,.49-.49,1.08-.74,1.78-.74s1.29,.25,1.78,.74c.49,.49,.75,1.09,.76,1.8v22.02c-.02,.71-.27,1.31-.76,1.8-.49,.49-1.08,.74-1.78,.74s-1.29-.25-1.78-.74-.74-1.09-.74-1.8Z"/><path class="d" d="M204.26,32.37c3.21,0,6.04,.99,8.49,2.98v-12.08c0-.73,.24-1.33,.71-1.8,.48-.48,1.08-.71,1.8-.71s1.31,.24,1.8,.71c.49,.48,.74,1.08,.74,1.8v22.65c0,3.78-1.32,6.97-3.97,9.58-2.68,2.65-5.87,3.97-9.58,3.97s-6.94-1.32-9.58-3.97c-2.65-2.64-3.97-5.84-3.97-9.58s1.32-6.94,3.97-9.58c2.65-2.65,5.84-3.97,9.58-3.97Zm8.49,13.55c0-1.16-.22-2.25-.67-3.28-.44-1.02-1.05-1.92-1.81-2.7-.77-.78-1.67-1.39-2.7-1.84-1.03-.45-2.14-.68-3.32-.68s-2.31,.23-3.34,.68c-1.03,.45-1.93,1.06-2.69,1.83-.76,.77-1.36,1.67-1.8,2.7-.44,1.03-.67,2.13-.67,3.29s.22,2.26,.67,3.29c.44,1.03,1.04,1.93,1.8,2.7,.76,.77,1.65,1.38,2.69,1.83s2.15,.68,3.34,.68,2.28-.23,3.32-.68c1.03-.45,1.93-1.06,2.7-1.84,.77-.77,1.37-1.67,1.81-2.7,.44-1.03,.67-2.12,.67-3.28Z"/></g></g></g></g></svg>