<?xml version="1.0" encoding="UTF-8"?><svg xmlns="http://www.w3.org/2000/svg" viewBox="0 0 113.23 162.15"><defs><style>.d{fill:#0e19e5;}.e{fill:#06a2f9;}</style></defs><g id="a"/><g id="b"><g id="c"><g><g><path class="e" d="M90.06,42.14c-3.8,0-7.56-1.63-10.18-4.78-.59-.71-1.23-1.42-1.9-2.09-5.16-5.16-5.16-13.53,0-18.7,5.16-5.16,13.53-5.16,18.7,0,1.25,1.24,2.44,2.56,3.55,3.9,4.66,5.62,3.89,13.95-1.73,18.62-2.47,2.05-5.46,3.05-8.44,3.05Z"/><path class="d" d="M56.65,113.25c-14.97,0-29.44-5.96-40.07-16.58C5.89,85.97,0,71.75,0,56.63S5.89,27.28,16.59,16.59C27.78,5.4,43.26-.63,59.08,.05c7.29,.31,12.95,6.48,12.64,13.78-.31,7.29-6.51,12.95-13.78,12.64-8.56-.37-16.61,2.76-22.66,8.81-5.7,5.7-8.84,13.28-8.84,21.35s3.14,15.64,8.84,21.35c6.01,6.01,14.35,9.23,22.84,8.8,7.32-.35,13.5,5.26,13.85,12.55,.36,7.29-5.26,13.49-12.55,13.85-.92,.05-1.85,.07-2.77,.07Z"/><path class="e" d="M87.32,100.54c-3.38,0-6.77-1.29-9.35-3.87-5.16-5.16-5.16-13.53,0-18.7,5.41-5.41,8.54-12.6,8.82-20.24,.27-7.3,6.42-12.98,13.7-12.73,7.3,.27,12.99,6.4,12.73,13.7-.53,14.33-6.4,27.82-16.55,37.96-2.58,2.58-5.96,3.87-9.35,3.87Z"/></g><g><path class="d" d="M30.82,154.41c.31,0,.61,.06,.88,.18,.27,.12,.51,.28,.72,.48,.21,.2,.37,.44,.49,.72,.12,.28,.18,.58,.18,.89,0,.6-.24,1.15-.71,1.63-3.2,2.55-6.8,3.83-10.81,3.83-4.76,0-8.81-1.68-12.17-5.03-3.35-3.35-5.03-7.41-5.03-12.17s1.68-8.79,5.03-12.15c3.37-3.37,7.42-5.05,12.17-5.05,4.07,0,7.75,1.34,11.03,4.02,.4,.39,.6,.91,.6,1.57,0,.33-.06,.63-.17,.9-.12,.27-.28,.51-.48,.72-.21,.21-.45,.37-.73,.48-.28,.12-.58,.17-.89,.17-.56,0-1.08-.22-1.57-.65-1.09-.86-2.29-1.52-3.6-1.98-1.31-.46-2.71-.69-4.18-.69-3.5,0-6.49,1.24-8.97,3.72-2.45,2.45-3.68,5.43-3.68,8.92s1.23,6.49,3.68,8.94c2.46,2.47,5.45,3.7,8.97,3.7,3,0,5.63-.92,7.91-2.77,.37-.26,.82-.39,1.33-.41Z"/><path class="d" d="M36.02,159.91v-29.91c0-.63,.21-1.16,.63-1.6,.42-.44,.96-.66,1.6-.66s1.18,.22,1.6,.66c.42,.44,.63,.97,.63,1.6v27.65h1.03c.62,0,1.14,.22,1.58,.66,.44,.44,.66,.97,.66,1.6s-.22,1.14-.66,1.58c-.44,.44-.96,.66-1.58,.66h-3.29c-.62,0-1.14-.22-1.57-.66-.43-.44-.64-.96-.64-1.58Z"/><path class="d" d="M70.63,150.11c0,3.35-1.18,6.19-3.53,8.51-2.38,2.35-5.22,3.53-8.51,3.53s-6.16-1.18-8.51-3.53-3.53-5.19-3.53-8.51,1.18-6.16,3.53-8.51,5.19-3.53,8.51-3.53,6.13,1.18,8.51,3.53c1.17,1.18,2.05,2.47,2.63,3.89,.58,1.42,.88,2.96,.89,4.62Zm-12.04-7.55c-1.06,0-2.05,.2-2.97,.6-.92,.4-1.71,.94-2.39,1.62-.67,.68-1.21,1.48-1.6,2.4-.39,.92-.59,1.89-.59,2.92s.2,2.01,.59,2.92c.39,.92,.93,1.72,1.6,2.4,.67,.68,1.47,1.22,2.39,1.62,.92,.4,1.91,.6,2.97,.6s2.03-.2,2.95-.6c.92-.4,1.71-.95,2.4-1.63,.68-.69,1.22-1.49,1.61-2.4,.39-.91,.59-1.88,.59-2.91s-.2-2-.59-2.91c-.39-.91-.93-1.71-1.61-2.4-.68-.69-1.48-1.23-2.4-1.63-.92-.4-1.9-.6-2.95-.6Z"/><path class="d" d="M80.16,133.79c0,.73-.26,1.35-.77,1.87-.52,.52-1.14,.77-1.87,.77s-1.35-.26-1.87-.77c-.52-.52-.77-1.14-.77-1.87s.26-1.35,.77-1.87c.52-.52,1.14-.77,1.87-.77s1.35,.26,1.87,.77c.52,.52,.77,1.14,.77,1.87Zm-4.88,26.1v-19.56c0-.63,.22-1.16,.66-1.6,.44-.44,.96-.66,1.58-.66s1.14,.22,1.58,.66c.44,.44,.66,.97,.68,1.6v19.56c-.01,.63-.24,1.16-.68,1.6-.44,.44-.96,.66-1.58,.66s-1.14-.22-1.58-.66c-.44-.44-.66-.97-.66-1.6Z"/><path class="d" d="M96.43,138.07c2.85,0,5.37,.88,7.55,2.64v-10.73c0-.64,.21-1.18,.63-1.6,.42-.42,.96-.63,1.6-.63s1.16,.21,1.6,.63c.44,.42,.66,.96,.66,1.6v20.12c0,3.35-1.17,6.19-3.53,8.51-2.38,2.35-5.22,3.53-8.51,3.53s-6.16-1.18-8.51-3.53c-2.35-2.35-3.53-5.19-3.53-8.51s1.17-6.16,3.53-8.51c2.35-2.35,5.19-3.53,8.51-3.53Zm7.55,12.04c0-1.03-.2-2-.59-2.91-.39-.91-.93-1.71-1.61-2.4-.68-.69-1.48-1.23-2.4-1.63-.92-.4-1.9-.6-2.95-.6s-2.05,.2-2.97,.6c-.92,.4-1.71,.94-2.39,1.62-.67,.68-1.21,1.48-1.6,2.4-.39,.92-.59,1.89-.59,2.92s.2,2.01,.59,2.92c.39,.92,.93,1.72,1.6,2.4,.67,.68,1.47,1.22,2.39,1.62,.92,.4,1.91,.6,2.97,.6s2.03-.2,2.95-.6c.92-.4,1.72-.95,2.4-1.63,.68-.69,1.22-1.49,1.61-2.4,.39-.91,.59-1.88,.59-2.91Z"/></g></g></g></g></svg>