<?xml version="1.0" encoding="UTF-8"?><svg xmlns="http://www.w3.org/2000/svg" viewBox="0 0 113.23 113.25"><defs><style>.d{fill:#0e19e5;}.e{fill:#06a2f9;}</style></defs><g id="a"/><g id="b"><g id="c"><g><path class="e" d="M90.06,42.14c-3.8,0-7.56-1.63-10.18-4.78-.59-.71-1.23-1.42-1.9-2.09-5.16-5.16-5.16-13.53,0-18.7,5.16-5.16,13.53-5.16,18.7,0,1.25,1.24,2.44,2.56,3.55,3.9,4.66,5.62,3.89,13.95-1.73,18.62-2.47,2.05-5.46,3.05-8.44,3.05Z"/><path class="d" d="M56.65,113.25c-14.97,0-29.44-5.96-40.07-16.58C5.89,85.97,0,71.75,0,56.63S5.89,27.28,16.59,16.59C27.78,5.4,43.26-.63,59.08,.05c7.29,.31,12.95,6.48,12.64,13.78-.31,7.29-6.51,12.95-13.78,12.64-8.56-.37-16.61,2.76-22.66,8.81-5.7,5.7-8.84,13.28-8.84,21.35s3.14,15.64,8.84,21.35c6.01,6.01,14.35,9.23,22.84,8.8,7.32-.35,13.5,5.26,13.85,12.55,.36,7.29-5.26,13.49-12.55,13.85-.92,.05-1.85,.07-2.77,.07Z"/><path class="e" d="M87.32,100.54c-3.38,0-6.77-1.29-9.35-3.87-5.16-5.16-5.16-13.53,0-18.7,5.41-5.41,8.54-12.6,8.82-20.24,.27-7.3,6.42-12.98,13.7-12.73,7.3,.27,12.99,6.4,12.73,13.7-.53,14.33-6.4,27.82-16.55,37.96-2.58,2.58-5.96,3.87-9.35,3.87Z"/></g></g></g></svg>